<?xml version="1.0" standalone="no"?>
<!DOCTYPE svg PUBLIC "-//W3C//DTD SVG 20010904//EN"
 "http://www.w3.org/TR/2001/REC-SVG-20010904/DTD/svg10.dtd">
<svg version="1.0" xmlns="http://www.w3.org/2000/svg"
 width="1251.000000pt" height="1251.000000pt" viewBox="0 0 1251.000000 1251.000000"
 preserveAspectRatio="xMidYMid meet">
<metadata>
Created by potrace 1.14, written by Peter Selinger 2001-2017
</metadata>
<g transform="translate(0.000000,1251.000000) scale(0.100000,-0.100000)"
fill="#000000" stroke="none">
<path d="M2817 12503 c-1 -1 -42 -4 -92 -7 -49 -4 -101 -8 -115 -10 -14 -2
-46 -7 -71 -10 -211 -29 -542 -117 -694 -185 -106 -48 -252 -116 -261 -123 -6
-4 -37 -22 -70 -39 -53 -28 -267 -164 -297 -189 -7 -6 -50 -40 -97 -77 -566
-447 -942 -1083 -1074 -1818 -3 -16 -8 -54 -12 -83 -3 -29 -7 -63 -10 -75 -15
-82 -18 -597 -18 -3632 0 -3031 3 -3540 18 -3635 2 -14 7 -47 11 -75 12 -95
16 -120 20 -135 2 -8 7 -31 10 -50 3 -19 10 -48 15 -65 5 -16 11 -41 14 -55
16 -86 80 -281 143 -429 194 -465 514 -880 922 -1197 302 -234 718 -437 1066
-519 39 -9 79 -19 90 -21 36 -9 229 -42 275 -48 25 -3 79 -9 120 -13 98 -10
6954 -10 7086 0 55 4 112 10 125 12 13 3 46 8 74 11 40 4 154 26 255 49 360
80 764 272 1095 521 160 119 399 353 526 514 94 120 266 383 286 438 4 9 14
28 23 42 25 38 115 242 153 350 33 91 91 288 101 340 2 14 11 59 20 100 8 41
18 95 21 120 3 25 8 56 10 70 2 14 7 57 12 95 10 91 10 7021 0 7140 -4 50 -9
99 -11 110 -2 11 -7 43 -10 70 -4 28 -16 95 -27 150 -186 912 -799 1691 -1643
2085 -129 60 -404 161 -479 176 -10 2 -27 6 -37 9 -22 7 -28 8 -160 34 -111
22 -203 36 -310 47 -53 6 -6998 13 -7003 7z m5683 -2095 c14 -4 43 -9 65 -12
735 -97 1401 -579 1743 -1262 27 -55 53 -110 57 -124 4 -14 11 -29 15 -35 14
-18 79 -223 104 -327 23 -96 32 -145 53 -288 10 -72 10 -4100 0 -4205 -4 -44
-10 -87 -12 -95 -2 -8 -6 -32 -9 -52 -3 -21 -11 -59 -17 -85 -6 -27 -12 -56
-14 -65 -33 -159 -130 -407 -228 -583 -37 -65 -173 -274 -186 -285 -4 -3 -26
-30 -50 -60 -61 -77 -252 -265 -336 -331 -232 -184 -475 -314 -750 -402 -82
-26 -154 -46 -190 -53 -11 -2 -42 -8 -70 -14 -54 -11 -94 -16 -195 -28 -36 -4
-992 -7 -2125 -7 -1559 0 -2076 3 -2125 12 -36 7 -85 15 -108 18 -75 11 -269
63 -374 101 -596 214 -1083 671 -1337 1252 -78 178 -146 418 -167 587 -4 28
-8 52 -9 55 -18 31 -28 3963 -11 4150 12 139 18 175 42 298 89 438 288 817
604 1145 331 345 759 577 1233 668 51 9 73 13 207 29 77 9 4154 7 4190 -2z"/>
<path d="M6269 9356 c-2 -2 -38 -7 -79 -10 -101 -9 -152 -16 -232 -30 -49 -9
-71 -10 -79 -2 -9 8 -10 8 -5 -1 5 -8 1 -13 -11 -14 -30 -1 -55 -6 -117 -23
-33 -9 -67 -18 -75 -20 -30 -5 -106 -28 -211 -64 -58 -19 -111 -35 -117 -35
-7 0 -13 -3 -13 -7 0 -4 -19 -13 -42 -20 -24 -7 -53 -20 -66 -27 -13 -8 -30
-12 -38 -9 -8 3 -13 2 -10 -2 2 -4 -43 -31 -100 -59 -58 -29 -103 -49 -100
-44 3 4 -1 8 -8 8 -8 0 -12 -6 -9 -12 2 -7 -16 -23 -44 -36 -47 -23 -383 -244
-393 -258 -3 -5 -47 -43 -98 -85 -267 -221 -519 -519 -700 -826 -45 -76 -133
-247 -176 -340 -55 -121 -170 -468 -191 -578 -25 -131 -45 -247 -50 -297 -3
-33 -8 -67 -10 -75 -15 -56 -21 -402 -10 -545 8 -105 22 -233 31 -280 2 -11 8
-45 14 -75 6 -30 12 -66 15 -80 3 -14 7 -37 10 -52 14 -75 86 -297 148 -453
86 -220 290 -565 434 -735 11 -14 40 -47 63 -75 86 -102 244 -259 350 -346
510 -424 1106 -659 1761 -695 151 -8 3357 -11 3370 -3 10 6 13 3220 5 3374
-10 168 -32 336 -61 461 -8 34 -16 73 -19 85 -8 44 -57 203 -91 299 -106 301
-276 606 -486 870 -106 133 -323 351 -459 460 -429 343 -941 562 -1486 636
-27 3 -62 8 -79 10 -39 6 -531 14 -536 10z"/>
<path d="M5470 9230 c0 -5 5 -10 11 -10 5 0 7 5 4 10 -3 6 -8 10 -11 10 -2 0
-4 -4 -4 -10z"/>
<path d="M5195 9179 c-4 -6 -5 -12 -2 -15 2 -3 7 2 10 11 7 17 1 20 -8 4z"/>
<path d="M5076 9072 c-3 -5 1 -9 9 -9 8 0 12 4 9 9 -3 4 -7 8 -9 8 -2 0 -6 -4
-9 -8z"/>
<path d="M4796 8983 c-6 -14 -5 -15 5 -6 7 7 10 15 7 18 -3 3 -9 -2 -12 -12z"/>
<path d="M4610 8789 c0 -5 5 -7 10 -4 6 3 10 8 10 11 0 2 -4 4 -10 4 -5 0 -10
-5 -10 -11z"/>
<path d="M9593 5045 c0 -8 4 -12 9 -9 5 3 6 10 3 15 -9 13 -12 11 -12 -6z"/>
<path d="M9875 5019 c-4 -6 -5 -12 -2 -15 2 -3 7 2 10 11 7 17 1 20 -8 4z"/>
<path d="M9745 4909 c-3 -4 2 -6 10 -5 21 3 28 13 10 13 -9 0 -18 -4 -20 -8z"/>
<path d="M9955 4861 c-3 -5 -2 -12 3 -15 5 -3 9 1 9 9 0 17 -3 19 -12 6z"/>
<path d="M9750 4846 c0 -2 8 -10 18 -17 15 -13 16 -12 3 4 -13 16 -21 21 -21
13z"/>
<path d="M9795 4699 c-4 -6 -5 -12 -2 -15 2 -3 7 2 10 11 7 17 1 20 -8 4z"/>
<path d="M9690 4676 c0 -2 7 -7 16 -10 8 -3 12 -2 9 4 -6 10 -25 14 -25 6z"/>
<path d="M9805 4470 c-3 -6 1 -7 9 -4 18 7 21 14 7 14 -6 0 -13 -4 -16 -10z"/>
<path d="M9616 4432 c-3 -5 1 -9 9 -9 8 0 12 4 9 9 -3 4 -7 8 -9 8 -2 0 -6 -4
-9 -8z"/>
<path d="M9595 4341 c-3 -5 -2 -12 3 -15 5 -3 9 1 9 9 0 17 -3 19 -12 6z"/>
<path d="M10046 4308 c3 -5 10 -6 15 -3 13 9 11 12 -6 12 -8 0 -12 -4 -9 -9z"/>
<path d="M10127 4309 c7 -7 15 -10 18 -7 3 3 -2 9 -12 12 -14 6 -15 5 -6 -5z"/>
<path d="M9913 4265 c0 -8 4 -12 9 -9 5 3 6 10 3 15 -9 13 -12 11 -12 -6z"/>
<path d="M9620 4030 c-9 -6 -10 -10 -3 -10 6 0 15 5 18 10 8 12 4 12 -15 0z"/>
<path d="M10030 3931 c0 -6 4 -13 10 -16 6 -3 7 1 4 9 -7 18 -14 21 -14 7z"/>
<path d="M9820 3876 c0 -2 8 -10 18 -17 15 -13 16 -12 3 4 -13 16 -21 21 -21
13z"/>
<path d="M9754 3816 c1 -8 5 -18 8 -22 4 -3 5 1 4 10 -1 8 -5 18 -8 22 -4 3
-5 -1 -4 -10z"/>
<path d="M9593 3765 c0 -8 4 -12 9 -9 5 3 6 10 3 15 -9 13 -12 11 -12 -6z"/>
</g>
</svg>
